# xmcd
#
# Track frame offsets:
#	183
#	15320
#	30633
#
# Disc length: 598 seconds
#
# Revision: 0
# Processed by: cddbd v1.4PL0 Copyright (c) Steve Scherf et al.
# Submitted via: dBpowerAMP V4.0
#
DISCID=14025403
DTITLE=Lyn Collins - Think (about it)
DYEAR=1900
DGENRE=Funk
TTITLE0=Think (ablout it)
TTITLE1=Rock me Agian and Again and Again
TTITLE2=Yes, it's you
EXTD=
EXTT0=
EXTT1=
EXTT2=
PLAYORDER=
